<?xml version="1.0" encoding="UTF-8"?>
<svg width="491px" height="62px" viewBox="0 0 491 62" version="1.1" xmlns="http://www.w3.org/2000/svg" xmlns:xlink="http://www.w3.org/1999/xlink">
    <title>title_v4</title>
    <defs>
        <path d="M81.52,48.24 C81.616,48.24 81.704,48.112 81.784,47.856 C81.864,47.6 81.904,47.376 81.904,47.184 C81.904,47.024 81.864,46.808 81.784,46.536 C81.704,46.264 81.616,46.128 81.52,46.128 C79.664,45.936 78.432,45.536 77.824,44.928 C77.216,44.32 76.912,43.376 76.912,42.096 L76.912,42.096 L76.912,19.344 C76.912,18.704 77.072,18.232 77.392,17.928 C77.712,17.624 78.24,17.472 78.976,17.472 L78.976,17.472 L79.696,17.472 C81.168,17.472 82.744,18.536 84.424,20.664 C86.104,22.792 87.168,24.736 87.616,26.496 C87.648,26.56 87.776,26.616 88,26.664 C88.224,26.712 88.4,26.736 88.528,26.736 C88.848,26.736 89.128,26.672 89.368,26.544 C89.608,26.416 89.728,26.272 89.728,26.112 C89.536,24.096 89.36,22.032 89.2,19.92 C89.04,17.808 88.912,15.984 88.816,14.448 C87.888,14.64 85.976,14.8 83.08,14.928 C80.184,15.056 76.56,15.12 72.208,15.12 L71.1385306,15.1190204 C66.5943673,15.1105306 63.2228571,15.0468571 61.024,14.928 C58.656,14.8 56.912,14.64 55.792,14.448 C55.632,15.984 55.368,17.912 55,20.232 C54.632,22.552 54.288,24.512 53.968,26.112 C53.968,26.272 54.104,26.416 54.376,26.544 C54.648,26.672 54.928,26.736 55.216,26.736 C55.344,26.736 55.512,26.72 55.72,26.688 C55.928,26.656 56.048,26.592 56.08,26.496 C56.88,24.416 58.24,22.392 60.16,20.424 C62.08,18.456 63.696,17.472 65.008,17.472 L65.008,17.472 L65.392,17.472 C66.192,17.472 66.736,17.608 67.024,17.88 C67.312,18.152 67.456,18.64 67.456,19.344 L67.456,19.344 L67.456,42.096 C67.456,43.408 67.16,44.352 66.568,44.928 C65.976,45.504 64.736,45.904 62.848,46.128 C62.752,46.16 62.664,46.304 62.584,46.56 C62.504,46.816 62.464,47.024 62.464,47.184 C62.464,47.376 62.504,47.6 62.584,47.856 C62.664,48.112 62.752,48.24 62.848,48.24 C64.416,48.24 66,48.2 67.6,48.12 C69.2,48.04 70.736,48 72.208,48 C73.648,48 75.176,48.04 76.792,48.12 C78.408,48.2 79.984,48.24 81.52,48.24 Z M125.829333,48.24 C125.925333,48.24 126.013333,48.112 126.093333,47.856 C126.173333,47.6 126.213333,47.376 126.213333,47.184 C126.213333,47.024 126.173333,46.808 126.093333,46.536 C126.013333,46.264 125.925333,46.128 125.829333,46.128 C124.421333,46 123.525333,45.68 123.141333,45.168 C122.757333,44.656 122.565333,43.632 122.565333,42.096 L122.565333,42.096 L122.565333,33.36 C122.565333,31.472 121.893333,29.784 120.549333,28.296 C119.205333,26.808 117.333333,26.064 114.933333,26.064 C113.557333,26.064 112.181333,26.424 110.805333,27.144 C109.429333,27.864 108.389333,28.976 107.685333,30.48 L107.685333,30.48 L107.685333,21.936 C107.685333,20.944 107.725333,19.648 107.805333,18.048 C107.885333,16.448 107.973333,15.04 108.069333,13.824 C108.069333,13.664 107.989333,13.52 107.829333,13.392 C107.669333,13.264 107.381333,13.2 106.965333,13.2 C106.805333,13.2 106.613333,13.248 106.389333,13.344 C106.165333,13.44 106.005333,13.52 105.909333,13.584 C104.949333,14.064 103.485333,14.672 101.517333,15.408 C99.5493333,16.144 97.8133333,16.672 96.3093333,16.992 C96.2133333,16.992 96.1253333,17.12 96.0453333,17.376 C95.9653333,17.632 95.9253333,17.84 95.9253333,18 C95.9253333,18.16 95.9653333,18.36 96.0453333,18.6 C96.1253333,18.84 96.2133333,18.976 96.3093333,19.008 C97.4933333,19.136 98.3253333,19.4 98.8053333,19.8 C99.2853333,20.2 99.5253333,21.024 99.5253333,22.272 L99.5253333,22.272 L99.5253333,42.096 C99.5253333,43.696 99.3413333,44.728 98.9733333,45.192 C98.6053333,45.656 97.7173333,45.968 96.3093333,46.128 C96.2133333,46.16 96.1253333,46.304 96.0453333,46.56 C95.9653333,46.816 95.9253333,47.024 95.9253333,47.184 C95.9253333,47.408 95.9653333,47.64 96.0453333,47.88 C96.1253333,48.12 96.2133333,48.24 96.3093333,48.24 C97.2693333,48.24 98.3973333,48.2 99.6933333,48.12 C100.989333,48.04 102.197333,48 103.317333,48 C104.437333,48 105.509333,48.04 106.533333,48.12 C107.557333,48.2 108.565333,48.24 109.557333,48.24 C109.653333,48.24 109.741333,48.12 109.821333,47.88 C109.901333,47.64 109.941333,47.408 109.941333,47.184 C109.941333,47.024 109.901333,46.808 109.821333,46.536 C109.741333,46.264 109.653333,46.128 109.557333,46.128 C108.917333,46.064 108.445333,45.728 108.141333,45.12 C107.837333,44.512 107.685333,43.504 107.685333,42.096 L107.685333,42.096 L107.685333,33.984 C108.261333,32.608 108.837333,31.608 109.413333,30.984 C109.989333,30.36 110.741333,30.048 111.669333,30.048 C112.757333,30.048 113.493333,30.392 113.877333,31.08 C114.261333,31.768 114.453333,32.912 114.453333,34.512 L114.453333,34.512 L114.453333,42.096 C114.453333,43.632 114.293333,44.664 113.973333,45.192 C113.653333,45.72 113.173333,46.032 112.533333,46.128 C112.437333,46.16 112.349333,46.304 112.269333,46.56 C112.189333,46.816 112.149333,47.024 112.149333,47.184 C112.149333,47.376 112.189333,47.6 112.269333,47.856 C112.349333,48.112 112.437333,48.24 112.533333,48.24 C113.493333,48.24 114.501333,48.2 115.557333,48.12 C116.613333,48.04 117.685333,48 118.773333,48 C119.893333,48 121.101333,48.04 122.397333,48.12 C123.693333,48.2 124.837333,48.24 125.829333,48.24 Z M144.554667,48.96 C147.178667,48.96 149.274667,48.416 150.842667,47.328 C152.410667,46.24 153.594667,45.12 154.394667,43.968 C154.458667,43.904 154.498667,43.84 154.514667,43.776 C154.530667,43.712 154.538667,43.648 154.538667,43.584 C154.538667,43.424 154.482667,43.256 154.370667,43.08 C154.258667,42.904 154.122667,42.736 153.962667,42.576 C153.834667,42.48 153.690667,42.376 153.530667,42.264 C153.370667,42.152 153.274667,42.128 153.242667,42.192 C152.602667,43.056 151.562667,43.776 150.122667,44.352 C148.682667,44.928 147.386667,45.216 146.234667,45.216 C144.570667,45.216 143.298667,44.688 142.418667,43.632 C141.538667,42.576 141.098667,40.704 141.098667,38.016 L141.098667,38.016 L141.098667,36.984 C141.098667,36.616 141.114667,36.32 141.146667,36.096 L141.146667,36.096 L154.394667,36.096 C154.682667,36.096 154.906667,36.032 155.066667,35.904 C155.226667,35.776 155.306667,35.6 155.306667,35.376 C155.306667,32.752 154.346667,30.544 152.426667,28.752 C150.506667,26.96 147.882667,26.064 144.554667,26.064 C140.906667,26.064 137.970667,27.176 135.746667,29.4 C133.522667,31.624 132.410667,34.432 132.410667,37.824 C132.410667,40.832 133.578667,43.44 135.914667,45.648 C138.250667,47.856 141.130667,48.96 144.554667,48.96 Z M141.386667,33.888 C141.546667,32.224 141.882667,30.88 142.394667,29.856 C142.906667,28.832 143.690667,28.32 144.746667,28.32 C145.610667,28.32 146.258667,28.656 146.690667,29.328 C147.122667,30 147.338667,30.816 147.338667,31.776 C147.338667,32.608 147.178667,33.144 146.858667,33.384 C146.538667,33.624 146.026667,33.76 145.322667,33.792 L145.322667,33.792 L141.386667,33.888 Z M188.293333,48.912 C191.173333,48.912 193.517333,48.192 195.325333,46.752 C197.133333,45.312 198.037333,43.456 198.037333,41.184 C198.037333,39.488 197.437333,38.168 196.237333,37.224 C195.037333,36.28 193.765333,35.52 192.421333,34.944 C191.205333,34.432 189.957333,33.872 188.677333,33.264 C187.397333,32.656 186.757333,31.808 186.757333,30.72 C186.757333,29.888 187.013333,29.28 187.525333,28.896 C188.037333,28.512 188.773333,28.32 189.733333,28.32 C190.757333,28.32 191.741333,28.744 192.685333,29.592 C193.629333,30.44 194.277333,31.6 194.629333,33.072 C194.661333,33.2 194.789333,33.296 195.013333,33.36 C195.237333,33.424 195.461333,33.456 195.685333,33.456 C195.845333,33.456 196.061333,33.416 196.333333,33.336 C196.605333,33.256 196.741333,33.168 196.741333,33.072 C196.677333,32.272 196.613333,31.264 196.549333,30.048 C196.485333,28.832 196.453333,27.872 196.453333,27.168 C195.365333,27.168 194.269333,26.976 193.165333,26.592 C192.061333,26.208 190.741333,26.016 189.205333,26.016 C186.837333,26.016 184.653333,26.688 182.653333,28.032 C180.653333,29.376 179.653333,31.04 179.653333,33.024 C179.653333,34.752 180.237333,36.112 181.405333,37.104 C182.573333,38.096 183.845333,38.896 185.221333,39.504 C186.469333,40.08 187.701333,40.664 188.917333,41.256 C190.133333,41.848 190.741333,42.672 190.741333,43.728 C190.741333,44.624 190.501333,45.328 190.021333,45.84 C189.541333,46.352 188.821333,46.608 187.861333,46.608 C186.613333,46.608 185.381333,46.088 184.165333,45.048 C182.949333,44.008 182.005333,42.64 181.333333,40.944 C181.301333,40.848 181.165333,40.76 180.925333,40.68 C180.685333,40.6 180.453333,40.56 180.229333,40.56 C180.069333,40.56 179.853333,40.6 179.581333,40.68 C179.309333,40.76 179.189333,40.848 179.221333,40.944 C179.349333,41.584 179.493333,42.648 179.653333,44.136 C179.813333,45.624 179.941333,46.768 180.037333,47.568 C181.701333,47.568 182.981333,47.792 183.877333,48.24 C184.773333,48.688 186.245333,48.912 188.293333,48.912 Z M217.002667,48.72 C218.858667,48.72 220.474667,48.328 221.850667,47.544 C223.226667,46.76 224.250667,45.936 224.922667,45.072 C224.986667,45.04 225.018667,44.992 225.018667,44.928 L225.018667,44.928 L225.018667,44.736 C225.018667,44.576 224.962667,44.376 224.850667,44.136 C224.738667,43.896 224.618667,43.696 224.490667,43.536 C224.330667,43.376 224.154667,43.264 223.962667,43.2 C223.770667,43.136 223.610667,43.2 223.482667,43.392 C223.034667,43.936 222.498667,44.392 221.874667,44.76 C221.250667,45.128 220.586667,45.312 219.882667,45.312 C218.986667,45.312 218.354667,45.096 217.986667,44.664 C217.618667,44.232 217.434667,43.568 217.434667,42.672 L217.434667,42.672 L217.434667,30.24 L224.586667,30.432 C224.778667,30.432 224.930667,30.232 225.042667,29.832 C225.154667,29.432 225.210667,29.056 225.210667,28.704 C225.210667,28.416 225.154667,28.064 225.042667,27.648 C224.930667,27.232 224.778667,27.024 224.586667,27.024 L224.586667,27.024 L217.482667,27.024 L217.674667,20.736 C217.674667,20.64 217.554667,20.552 217.314667,20.472 C217.074667,20.392 216.842667,20.352 216.618667,20.352 C216.458667,20.352 216.258667,20.392 216.018667,20.472 C215.778667,20.552 215.626667,20.64 215.562667,20.736 C214.314667,22.016 212.786667,23.304 210.978667,24.6 C209.170667,25.896 207.370667,27.024 205.578667,27.984 C205.482667,28.048 205.386667,28.216 205.290667,28.488 C205.194667,28.76 205.146667,28.96 205.146667,29.088 C205.146667,29.216 205.194667,29.424 205.290667,29.712 C205.386667,30 205.498667,30.144 205.626667,30.144 L205.626667,30.144 L208.602667,30.144 C208.794667,30.144 208.938667,30.208 209.034667,30.336 C209.130667,30.464 209.178667,30.624 209.178667,30.816 L209.178667,30.816 L209.082667,39.84 C209.050667,42.976 209.706667,45.24 211.050667,46.632 C212.394667,48.024 214.378667,48.72 217.002667,48.72 Z M244.656,49.008 C248.816,49.008 251.976,47.88 254.136,45.624 C256.296,43.368 257.376,40.72 257.376,37.68 C257.376,34.576 256.272,31.864 254.064,29.544 C251.856,27.224 248.72,26.064 244.656,26.064 C240.496,26.064 237.328,27.24 235.152,29.592 C232.976,31.944 231.888,34.64 231.888,37.68 C231.888,40.752 232.984,43.408 235.176,45.648 C237.368,47.888 240.528,49.008 244.656,49.008 Z M244.656,46.704 C243.024,46.704 241.944,45.968 241.416,44.496 C240.888,43.024 240.624,40.736 240.624,37.632 C240.624,34.624 240.888,32.328 241.416,30.744 C241.944,29.16 243.024,28.368 244.656,28.368 C246.288,28.368 247.36,29.144 247.872,30.696 C248.384,32.248 248.64,34.56 248.64,37.632 C248.64,40.704 248.376,42.984 247.848,44.472 C247.32,45.96 246.256,46.704 244.656,46.704 Z M280.181333,48.24 C280.277333,48.24 280.365333,48.104 280.445333,47.832 C280.525333,47.56 280.565333,47.344 280.565333,47.184 C280.565333,46.992 280.525333,46.768 280.445333,46.512 C280.365333,46.256 280.277333,46.128 280.181333,46.128 C278.773333,45.968 277.813333,45.624 277.301333,45.096 C276.789333,44.568 276.533333,43.552 276.533333,42.048 L276.533333,42.048 L276.533333,33.6 C276.981333,32.8 277.405333,32.192 277.805333,31.776 C278.205333,31.36 278.741333,31.152 279.413333,31.152 C279.829333,31.152 280.205333,31.296 280.541333,31.584 C280.877333,31.872 281.189333,32.176 281.477333,32.496 C281.765333,32.784 282.133333,33.072 282.581333,33.36 C283.029333,33.648 283.589333,33.792 284.261333,33.792 C285.317333,33.792 286.173333,33.432 286.829333,32.712 C287.485333,31.992 287.813333,31.072 287.813333,29.952 C287.813333,28.768 287.373333,27.816 286.493333,27.096 C285.613333,26.376 284.389333,26.016 282.821333,26.016 C281.733333,26.016 280.565333,26.48 279.317333,27.408 C278.069333,28.336 277.077333,29.488 276.341333,30.864 L276.341333,30.864 L276.581333,26.256 C276.581333,26.096 276.493333,25.952 276.317333,25.824 C276.141333,25.696 275.861333,25.632 275.477333,25.632 C275.317333,25.632 275.125333,25.68 274.901333,25.776 C274.677333,25.872 274.517333,25.952 274.421333,26.016 C273.397333,26.496 271.957333,27.088 270.101333,27.792 C268.245333,28.496 266.789333,28.976 265.733333,29.232 C265.637333,29.232 265.549333,29.36 265.469333,29.616 C265.389333,29.872 265.349333,30.08 265.349333,30.24 C265.349333,30.4 265.389333,30.6 265.469333,30.84 C265.549333,31.08 265.637333,31.2 265.733333,31.2 C266.917333,31.328 267.661333,31.592 267.965333,31.992 C268.269333,32.392 268.421333,33.232 268.421333,34.512 L268.421333,34.512 L268.421333,42.048 C268.421333,43.616 268.229333,44.64 267.845333,45.12 C267.461333,45.6 266.565333,45.936 265.157333,46.128 C265.061333,46.128 264.973333,46.256 264.893333,46.512 C264.813333,46.768 264.773333,46.992 264.773333,47.184 C264.773333,47.344 264.813333,47.56 264.893333,47.832 C264.973333,48.104 265.061333,48.24 265.157333,48.24 C266.117333,48.24 267.301333,48.192 268.709333,48.096 C270.117333,48 271.365333,47.952 272.453333,47.952 C273.573333,47.952 274.893333,48 276.413333,48.096 C277.933333,48.192 279.189333,48.24 280.181333,48.24 Z M299.434667,61.344 C301.226667,61.344 302.666667,60.632 303.754667,59.208 C304.842667,57.784 306.250667,55.248 307.978667,51.6 L307.978667,51.6 L317.002667,32.208 C317.450667,31.216 318.026667,30.44 318.730667,29.88 C319.434667,29.32 320.330667,28.992 321.418667,28.896 C321.514667,28.896 321.602667,28.776 321.682667,28.536 C321.762667,28.296 321.802667,28.064 321.802667,27.84 C321.802667,27.616 321.762667,27.384 321.682667,27.144 C321.602667,26.904 321.514667,26.784 321.418667,26.784 C320.618667,26.784 319.834667,26.832 319.066667,26.928 C318.298667,27.024 317.642667,27.072 317.098667,27.072 C316.170667,27.072 315.330667,27.024 314.578667,26.928 C313.826667,26.832 312.954667,26.784 311.962667,26.784 C311.866667,26.784 311.778667,26.904 311.698667,27.144 C311.618667,27.384 311.578667,27.616 311.578667,27.84 C311.578667,28.064 311.618667,28.288 311.698667,28.512 C311.778667,28.736 311.866667,28.864 311.962667,28.896 C312.890667,29.024 313.530667,29.248 313.882667,29.568 C314.234667,29.888 314.410667,30.304 314.410667,30.816 C314.410667,31.104 314.386667,31.328 314.338667,31.488 C314.290667,31.648 314.202667,31.888 314.074667,32.208 L314.074667,32.208 L310.474667,40.32 L306.634667,32.208 C306.506667,31.92 306.386667,31.632 306.274667,31.344 C306.162667,31.056 306.106667,30.736 306.106667,30.384 C306.106667,29.904 306.322667,29.552 306.754667,29.328 C307.186667,29.104 307.770667,28.96 308.506667,28.896 C308.602667,28.896 308.690667,28.76 308.770667,28.488 C308.850667,28.216 308.890667,28 308.890667,27.84 C308.890667,27.648 308.850667,27.424 308.770667,27.168 C308.690667,26.912 308.602667,26.784 308.506667,26.784 C307.514667,26.784 306.322667,26.832 304.930667,26.928 C303.538667,27.024 302.282667,27.072 301.162667,27.072 C300.042667,27.072 298.826667,27.024 297.514667,26.928 C296.202667,26.832 295.050667,26.784 294.058667,26.784 C293.962667,26.784 293.874667,26.904 293.794667,27.144 C293.714667,27.384 293.674667,27.616 293.674667,27.84 C293.674667,28.064 293.714667,28.288 293.794667,28.512 C293.874667,28.736 293.962667,28.864 294.058667,28.896 C295.306667,29.056 296.194667,29.384 296.722667,29.88 C297.250667,30.376 297.770667,31.152 298.282667,32.208 L298.282667,32.208 L306.634667,48.768 L305.962667,50.304 C305.034667,52.48 304.322667,53.864 303.826667,54.456 C303.330667,55.048 302.890667,55.344 302.506667,55.344 C302.090667,55.344 301.634667,55.192 301.138667,54.888 C300.642667,54.584 299.978667,54.432 299.146667,54.432 C298.090667,54.432 297.210667,54.776 296.506667,55.464 C295.802667,56.152 295.450667,56.992 295.450667,57.984 C295.450667,59.008 295.802667,59.824 296.506667,60.432 C297.210667,61.04 298.186667,61.344 299.434667,61.344 Z M355.941333,49.008 C360.101333,49.008 363.261333,47.88 365.421333,45.624 C367.581333,43.368 368.661333,40.72 368.661333,37.68 C368.661333,34.576 367.557333,31.864 365.349333,29.544 C363.141333,27.224 360.005333,26.064 355.941333,26.064 C351.781333,26.064 348.613333,27.24 346.437333,29.592 C344.261333,31.944 343.173333,34.64 343.173333,37.68 C343.173333,40.752 344.269333,43.408 346.461333,45.648 C348.653333,47.888 351.813333,49.008 355.941333,49.008 Z M355.941333,46.704 C354.309333,46.704 353.229333,45.968 352.701333,44.496 C352.173333,43.024 351.909333,40.736 351.909333,37.632 C351.909333,34.624 352.173333,32.328 352.701333,30.744 C353.229333,29.16 354.309333,28.368 355.941333,28.368 C357.573333,28.368 358.645333,29.144 359.157333,30.696 C359.669333,32.248 359.925333,34.56 359.925333,37.632 C359.925333,40.704 359.661333,42.984 359.133333,44.472 C358.605333,45.96 357.541333,46.704 355.941333,46.704 Z M392.090667,48.24 C392.186667,48.24 392.274667,48.12 392.354667,47.88 C392.434667,47.64 392.474667,47.408 392.474667,47.184 C392.474667,47.024 392.434667,46.808 392.354667,46.536 C392.274667,46.264 392.186667,46.128 392.090667,46.128 C390.714667,46 389.770667,45.68 389.258667,45.168 C388.746667,44.656 388.490667,43.632 388.490667,42.096 L388.490667,42.096 L388.490667,30.432 L393.914667,30.624 C394.074667,30.656 394.210667,30.464 394.322667,30.048 C394.434667,29.632 394.490667,29.264 394.490667,28.944 C394.490667,28.592 394.442667,28.224 394.346667,27.84 C394.250667,27.456 394.106667,27.264 393.914667,27.264 L393.914667,27.264 L388.538667,27.264 L388.538667,22.8 C388.538667,19.792 388.810667,18.056 389.354667,17.592 C389.898667,17.128 390.554667,16.896 391.322667,16.896 C391.770667,16.896 392.178667,17.176 392.546667,17.736 C392.914667,18.296 393.242667,18.864 393.530667,19.44 C393.882667,20.08 394.314667,20.656 394.826667,21.168 C395.338667,21.68 396.026667,21.936 396.890667,21.936 C398.074667,21.936 398.970667,21.576 399.578667,20.856 C400.186667,20.136 400.490667,19.312 400.490667,18.384 C400.490667,16.976 399.874667,15.784 398.642667,14.808 C397.410667,13.832 395.594667,13.344 393.194667,13.344 C390.186667,13.344 387.290667,14.648 384.506667,17.256 C381.722667,19.864 380.330667,23.072 380.330667,26.88 C380.330667,27.136 379.914667,27.392 379.082667,27.648 C378.250667,27.904 377.578667,28.096 377.066667,28.224 C376.970667,28.256 376.874667,28.416 376.778667,28.704 C376.682667,28.992 376.634667,29.2 376.634667,29.328 C376.634667,29.456 376.682667,29.656 376.778667,29.928 C376.874667,30.2 376.986667,30.336 377.114667,30.336 L377.114667,30.336 L379.754667,30.336 C379.946667,30.336 380.090667,30.408 380.186667,30.552 C380.282667,30.696 380.330667,30.848 380.330667,31.008 L380.330667,31.008 L380.330667,42.096 C380.330667,43.696 380.146667,44.728 379.778667,45.192 C379.410667,45.656 378.506667,45.968 377.066667,46.128 C376.970667,46.16 376.882667,46.304 376.802667,46.56 C376.722667,46.816 376.682667,47.024 376.682667,47.184 C376.682667,47.376 376.722667,47.6 376.802667,47.856 C376.882667,48.112 376.970667,48.24 377.066667,48.24 C378.058667,48.24 379.250667,48.2 380.642667,48.12 C382.034667,48.04 383.290667,48 384.410667,48 C385.530667,48 386.842667,48.04 388.346667,48.12 C389.850667,48.2 391.098667,48.24 392.090667,48.24 Z M434.917333,48.912 C435.141333,48.912 435.365333,48.872 435.589333,48.792 C435.813333,48.712 435.973333,48.672 436.069333,48.672 C437.093333,48.352 438.565333,48.016 440.485333,47.664 C442.405333,47.312 443.861333,47.088 444.853333,46.992 C444.949333,46.992 445.037333,46.896 445.117333,46.704 C445.197333,46.512 445.237333,46.304 445.237333,46.08 C445.237333,45.92 445.197333,45.704 445.117333,45.432 C445.037333,45.16 444.949333,45.024 444.853333,45.024 C443.541333,44.928 442.701333,44.68 442.333333,44.28 C441.965333,43.88 441.781333,42.992 441.781333,41.616 L441.781333,41.616 L441.781333,26.976 C441.781333,26.88 441.677333,26.72 441.469333,26.496 C441.261333,26.272 441.013333,26.208 440.725333,26.304 C439.509333,26.592 437.717333,26.832 435.349333,27.024 C432.981333,27.216 431.269333,27.312 430.213333,27.312 C430.117333,27.312 430.029333,27.44 429.949333,27.696 C429.869333,27.952 429.829333,28.192 429.829333,28.416 C429.829333,28.608 429.869333,28.824 429.949333,29.064 C430.029333,29.304 430.117333,29.424 430.213333,29.424 C431.525333,29.392 432.429333,29.624 432.925333,30.12 C433.421333,30.616 433.669333,31.552 433.669333,32.928 L433.669333,32.928 L433.669333,42.096 C433.285333,43.056 432.789333,43.84 432.181333,44.448 C431.573333,45.056 430.885333,45.36 430.117333,45.36 C429.029333,45.36 428.221333,45.048 427.693333,44.424 C427.165333,43.8 426.901333,42.864 426.901333,41.616 L426.901333,41.616 L426.901333,26.88 C426.901333,26.784 426.789333,26.624 426.565333,26.4 C426.341333,26.176 426.085333,26.112 425.797333,26.208 C424.581333,26.496 422.805333,26.752 420.469333,26.976 C418.133333,27.2 416.421333,27.312 415.333333,27.312 C415.237333,27.312 415.149333,27.44 415.069333,27.696 C414.989333,27.952 414.949333,28.192 414.949333,28.416 C414.949333,28.64 414.989333,28.864 415.069333,29.088 C415.149333,29.312 415.237333,29.424 415.333333,29.424 C416.613333,29.392 417.501333,29.608 417.997333,30.072 C418.493333,30.536 418.741333,31.488 418.741333,32.928 L418.741333,32.928 L418.741333,40.656 C418.741333,43.28 419.413333,45.312 420.757333,46.752 C422.101333,48.192 424.021333,48.912 426.517333,48.912 C428.245333,48.912 429.717333,48.584 430.933333,47.928 C432.149333,47.272 433.125333,46.288 433.861333,44.976 L433.861333,44.976 L434.101333,48.336 C434.101333,48.432 434.173333,48.552 434.317333,48.696 C434.461333,48.84 434.661333,48.912 434.917333,48.912 Z M461.802667,48.912 C464.682667,48.912 467.026667,48.192 468.834667,46.752 C470.642667,45.312 471.546667,43.456 471.546667,41.184 C471.546667,39.488 470.946667,38.168 469.746667,37.224 C468.546667,36.28 467.274667,35.52 465.930667,34.944 C464.714667,34.432 463.466667,33.872 462.186667,33.264 C460.906667,32.656 460.266667,31.808 460.266667,30.72 C460.266667,29.888 460.522667,29.28 461.034667,28.896 C461.546667,28.512 462.282667,28.32 463.242667,28.32 C464.266667,28.32 465.250667,28.744 466.194667,29.592 C467.138667,30.44 467.786667,31.6 468.138667,33.072 C468.170667,33.2 468.298667,33.296 468.522667,33.36 C468.746667,33.424 468.970667,33.456 469.194667,33.456 C469.354667,33.456 469.570667,33.416 469.842667,33.336 C470.114667,33.256 470.250667,33.168 470.250667,33.072 C470.222222,32.7164444 470.193778,32.3198025 470.165333,31.8820741 L470.122667,31.1946667 C470.101333,30.8355556 470.08,30.4533333 470.058667,30.048 C469.994667,28.832 469.962667,27.872 469.962667,27.168 C468.874667,27.168 467.778667,26.976 466.674667,26.592 C465.570667,26.208 464.250667,26.016 462.714667,26.016 C460.346667,26.016 458.162667,26.688 456.162667,28.032 C454.162667,29.376 453.162667,31.04 453.162667,33.024 C453.162667,34.752 453.746667,36.112 454.914667,37.104 C456.082667,38.096 457.354667,38.896 458.730667,39.504 C459.978667,40.08 461.210667,40.664 462.426667,41.256 C463.642667,41.848 464.250667,42.672 464.250667,43.728 C464.250667,44.624 464.010667,45.328 463.530667,45.84 C463.050667,46.352 462.330667,46.608 461.370667,46.608 C460.122667,46.608 458.890667,46.088 457.674667,45.048 C456.458667,44.008 455.514667,42.64 454.842667,40.944 C454.810667,40.848 454.674667,40.76 454.434667,40.68 C454.194667,40.6 453.962667,40.56 453.738667,40.56 C453.578667,40.56 453.362667,40.6 453.090667,40.68 C452.818667,40.76 452.698667,40.848 452.730667,40.944 C452.858667,41.584 453.002667,42.648 453.162667,44.136 C453.322667,45.624 453.450667,46.768 453.546667,47.568 C455.210667,47.568 456.490667,47.792 457.386667,48.24 C458.282667,48.688 459.754667,48.912 461.802667,48.912 Z" id="path-1"></path>
    </defs>
    <g id="title_v4" stroke="none" stroke-width="1" fill="none" fill-rule="evenodd">
        <g id="Thestoryofus" fill-rule="nonzero">
            <use fill="#FFFFFF" xlink:href="#path-1"></use>
            <use fill="#E64402" xlink:href="#path-1"></use>
        </g>
        <g id="Group" transform="translate(9.000000, -1.000000)">
            <g id="Combined-Shape" transform="translate(-5.468750, -5.617778)">
                <polygon id="Rectangle" fill="#E64402" transform="translate(30.204743, 34.748377) rotate(-45.000000) translate(-30.204743, -34.748377) " points="15.7516184 20.2952516 44.6578684 20.2952516 44.6578684 49.2015016 15.7516184 49.2015016"></polygon>
                <circle id="Oval" fill="#E64402" transform="translate(20.537268, 25.080901) rotate(-45.000000) translate(-20.537268, -25.080901) " cx="20.5372679" cy="25.0809011" r="14.453125"></circle>
                <circle id="Oval" fill="#E64402" transform="translate(40.424646, 24.528474) rotate(-45.000000) translate(-40.424646, -24.528474) " cx="40.4246461" cy="24.5284739" r="14.453125"></circle>
                <path d="M8.21462393,47.1973286 L8.21462393,20.3970291 L8.26095159,20.3968887 C8.82254486,13.5288663 14.4203162,8.13482861 21.2429772,8.13482861 C28.0656383,8.13482861 33.6634096,13.5288663 34.2250029,20.3968887 L34.2713306,20.3970291 L34.5562961,20.4006888 C41.609598,20.568728 47.2771239,26.5022048 47.2771239,33.7971789 C47.2771239,41.1978772 41.4441315,47.1973286 34.2487706,47.1973286 L34.2713306,47.1973286 L8.21462393,47.1973286 Z" fill="#FFFFFF" transform="translate(27.745874, 27.666079) rotate(-45.000000) translate(-27.745874, -27.666079) "></path>
            </g>
        </g>
    </g>
</svg>